<?xml version="1.0" encoding="UTF-8"?>
<svg id="Capa_1" xmlns="http://www.w3.org/2000/svg" version="1.1" viewBox="0 0 47.8 39.3">
  <!-- Generator: Adobe Illustrator 30.5.1, SVG Export Plug-In . SVG Version: 2.1.4 Build 3)  -->
  <defs>
    <style>
      .st0 {
        fill: #992367;
      }

      .st1 {
        fill: #db252d;
      }

      .st2 {
        fill: #4f2870;
      }

      .st3 {
        fill: #edd299;
      }

      .st4 {
        fill: #0c0d0c;
      }

      .st5 {
        fill: #d6ae61;
      }

      .st6 {
        fill: #7b491b;
      }

      .st7 {
        fill: #f1d732;
      }

      .st8 {
        fill: #fcfcfb;
      }

      .st9 {
        fill: #be9452;
      }

      .st10 {
        fill: #b4833a;
      }

      .st11 {
        fill: #9d4350;
      }

      .st12 {
        fill: #9f1f21;
      }

      .st13 {
        fill: #1a1b1b;
      }

      .st14 {
        fill: #206b5d;
      }

      .st15 {
        fill: #1197d3;
      }
    </style>
  </defs>
  <path class="st3" d="M25.1,0c1.2.8,2.7.7,4,2.7-.3.7.7,1.1-.2,1.1-.5,0-.5.7-1.1,1,.3.2.8.9.4,1.2s-.7,0-.9.1-.3.3-.2.6h-.6c-.4,0-.6-.3-.9-.5-.3-.4-.7.2-1,.3-.5.2-1.3.2-1.8.5.3-.5.5-1.1.8-1.5,0-.3.3-.4.5-.4.5,0,.7,0,.9.4.2-1.4,1-2,1-2.7s-2.3-2.9-4.9-1.6-1.8,1-1.8,2.2c.5-.2.7-.5.9-.8.6.4.2,1.1.3,1.5.7.8,1.3,1.6,1.6,2.5s0,.7,0,1c-.4-.8-1.1-.9-2.2-.8.4-.5,1-.4,1.5-.2-.3-.4-.8-.8-1.2-.8-.8,0-1.3.8-1.6,1.2,0,0-.2,0-.3,0,0-.5,0-1-.2-1.4l.3.2h.1c0-.4-.3-.4-.5-.5-.3-.2-.7-.7-1-1.1-.7.3-.9,1.8-.8,2.7s.2,2.1.7,2c0,.3,0,.7,0,1.1h-.5c-.1-.2-.6-.4-.6-.9,0-.8-.3-1.6-.4-2.5,0-1.3.6-3,1.6-3.7,1,0,1.4-.8,2.1-1.8,1.1-.6,1.7-.7,2.1-1h3.6ZM25.3,5.3v.2s0,.2,0,.2v.2s0-.2,0-.2v-.2s0-.2,0-.2ZM18.8,6h.1c-.1-.3-.3-.1-.1,0Z"/>
  <path class="st15" d="M14.8,25l-6.5,7.6s0,.2,0,.2h-.4c-.2,0-.4.3-.5.5l-.4.2-5.6,3.7c-.4.2-.7.5-1.1.5.1-1.3-.4-3.1.2-4.4s1.7-2.2,2.7-3.3l10-11.5c.1.1.2.1.3.1,1.2,1.9,1.5,4.2,1.4,6.4Z"/>
  <path class="st0" d="M33.8,31.9c-.2,0-.3.1-.3.2.6.9,1.4,1.1,2.2.9.5.3,1.1.4,1.7.3,1.4,1.9,3.5,3.2,5.9,3.3-3.3,2.2-7.9,2.6-11.4.4l-.8-2.9c-.3-1.1-.2-2.5,0-3.7s.8-.5,1.1-.5c.4.7.9,1.6,1.6,2Z"/>
  <path class="st1" d="M43.3,36.6c-2.4-.1-4.5-1.4-5.9-3.3,0,0,0-.3.2-.3,1.3-.3,2.7-.7,3.6-1.7,1,.3,1.7-.5,2.4-1.1,1.4-1.3,2.5-2.7,2.8-4.6s.3-.7.6-.9c1.8,4.4.2,9.2-3.7,11.9Z"/>
  <path class="st1" d="M35.4,19.9l-.5.9-2.9,3.6c-1.5,1.9-3.4,3.7-4,6.1-.2,0-.4,0-.5-.2-.9-1.1.5-2.8.7-3.3,1.1-2.7,1.4-5.6,1.9-8.5s.5-.8.3-1.2c.7-.8,1.3-1.7,2.1-2.5.1.1.4.3.4.5.3,1.8,1.2,3.3,2.5,4.6Z"/>
  <path class="st7" d="M39.9,14.6c-1.1.3-1.9.2-2.9-.1s-2.2-.4-3.2-.9c1-1.5,2.3-2.9,3.5-4.3s1.2-1.1,2.5-1l5.3.2-3.5,4.4-1.6,1.8Z"/>
  <path class="st0" d="M14.8,9.2c.6,1,.3,2.2,1.4,3.6,0,1,.6,1.5.3,2.1l-3.2.7c-1.3-2.9-3.3-2.2-4.9-2.4.7-.3,0-1.3.6-3.8s.5-.9.3-1.5c1.9,0,3.9.3,5.5,1.3Z"/>
  <path class="st7" d="M7.9,13.2l-1.7,1.8c-.6,1-.6,2.2-.7,3.5H.2c-.5-2.1.1-4.2,1.2-6,2.2-.7,4.7-.7,6.6.7Z"/>
  <path class="st0" d="M47.1,24.7c-.3.2-.6.5-.6.9-.3,1.9-1.4,3.4-2.8,4.6s-1.4,1.4-2.4,1.1c1.1-1.7,1.3-4.1,0-5.7,0-.6.4-1,.7-1.5.9-1.5.6-3,1.2-4.1,1.9.9,3.1,2.7,3.8,4.6Z"/>
  <path class="st2" d="M43.2,20.1c-.6,1-.4,2.6-1.2,4.1s-.7.9-.7,1.5c-1.7-2.2-4.2-2.6-7.1-1.3l4.6-5.8c1.1.2,2.1.5,3.1,1l1.3.6Z"/>
  <path class="st2" d="M16.5,14.8l.6,1.2c.2.3.3.9.3,1.3,0,1.3.4,2.4.7,3.6s-.2.6-.3.8l-2.9,3.4c0-2.2-.2-4.5-1.4-6.4-.1,0-.2,0-.3-.1.5-.6.5-2.2.1-2.9l3.2-.7Z"/>
  <path class="st2" d="M32.2,29.9c-.3,0-1,0-1.1.5-.2,1.2-.3,2.5,0,3.7l.8,2.9c-.9-.6-1.5-1.2-2.1-.9,0,0,0-.2,0-.3l-1.6-2.4c-.2-.4-.3-.9-.7-1.3.1-.2.1-.3.2-.5l.3-1.2c.7-2.4,2.5-4.2,4-6.1-.6,1.8-.8,3.8.1,5.5Z"/>
  <path class="st10" d="M39.9,14.6l-4.4,5.3c-1.3-1.2-2.2-2.8-2.5-4.6s-.3-.3-.4-.5c.4-.4.9-.9,1.2-1.4,1,.5,2.2.5,3.2.9s1.8.5,2.9.1Z"/>
  <path class="st1" d="M9.3,7.9c.2.5-.2,1-.3,1.5-.6,2.5.1,3.5-.6,3.8h-.5c-1.9-1.4-4.3-1.5-6.6-.7,1.7-2.8,4.7-4.4,7.9-4.6Z"/>
  <path class="st12" d="M28,30.5l-.3,1.2c-.3-.3-.5-.7-.6-1.1l-.6-2.2c-.1-.5-.1-1.1-.1-1.6v-1.6s0-.5,0-.5c.8-.2.9-1,1.1-1.7s1-1.8.6-2.6c.3-.3.4-.7.6-1l1.8-1.9c.2.4-.2.8-.3,1.2-.5,2.9-.9,5.7-1.9,8.5s-1.6,2.2-.7,3.3.3.2.5.2Z"/>
  <path class="st12" d="M18.5,33.1v.6c-.5.6-.9,1.4-1.2,2.1-.7.3-.8,1.1-.9,1.8v.3c-.2,0-.4,0-.5.2h-2c-.4-.4-1.9-.2-3.3-.2,2-1.2,3.9-2.5,5.2-4.6s.1-.3,0-.5c.9,0,1.9-.2,2.7.2Z"/>
  <path class="st13" d="M27.4,36.1c.2,0,.4-.1.6,0h.4c0,.7.3,1.4.8,1.8l-.5.4-3,.3c0,0,0-.3-.2-.3h-4.4c0,0,0-.2.2-.2h4.1c.3,0,.6-.6.6-.9s-.2-.5-.4-.7c.2-.1.5-.3.6-.5.4,0,.8.2,1.1,0Z"/>
  <path class="st5" d="M28.8,3.8c-.1.2-.1.5,0,.7s.5.1.7.2c.6.2.2,1,.1,1.3.4.3,1.1.5,1.1,1.1-.2,0-.3,0-.4.1s-.1.5,0,.5.5-.1.6,0c0,.2,0,.5,0,.7s.3.2.5.2c0,.4-.3.7-.3,1.1h-.6c0,0,.1-.2,0-.3-.1-.5-.3-1.2-.8-1.4,0-.2,0-.7,0-.9-.6-.7-1.8.3-2.7-.2,0-.3,0-.5.2-.6s.8,0,.9-.1c.4-.3,0-1-.4-1.2.6-.2.6-.9,1.1-1Z"/>
  <path class="st3" d="M15.4,9.1c.3,1.1.8,2.3,1.8,3s2.2.8,2.9,0h.3c.1.1.2.3.1.5-.5,0-1,.5-1.2.9-.5,0-.9,0-1.3,0s-.2,0-.3,0c-.6-.2-1.1-.6-1.6-.9-1-1.4-.8-2.6-1.4-3.6v-.2s.6.1.6.1Z"/>
  <path class="st9" d="M30.5,13.7c0,1.3-1.6,2.8-2.1,5.6s.1.2.2.2c-.3.3-.4.7-.6,1,0-.1-.4-.3-.4-.5.2-.3.2-.8.6-1.2-.6-.9-.2-1.6.2-2.4.9.1.9-2.4,2-2.7Z"/>
  <path class="st5" d="M17.2,37.8c.7.4,1.5.2,2.2.4s1,.2,1.6.2h4.4c.2,0,.2.1.2.2-.5,0-1-.1-1.4.2h-3.2c-.9,0-1.7-.4-2.5,0-.7-.2-1.7-.1-2.4-.7.1,0,.2-.2.2-.3v-.3c.3,0,.6,0,.8.1Z"/>
  <path class="st11" d="M10.6,37.9c1.4,0,2.9-.1,3.3.2H.4c0,0-.2-.3-.2-.5.4,0,.7-.2,1.1-.5l5.6-3.7c0,.6-.6.6-1,.9l-3.2,2.3c-.5.3-.9.5-1.3,1.2h9.2Z"/>
  <path class="st10" d="M31.1,6.7l-.3.2c0-.6-.6-.8-1.1-1.1,0-.3.5-1.1-.1-1.3s-.5-.1-.7-.2c-.2-.1-.2-.5,0-.7,1,0,0-.5.2-1.1,1.3.9,1.8,2.6,2,4.1Z"/>
  <path class="st14" d="M29.9,35.9c0,0,0,.2,0,.3.2.4.7,1,.4,1.5s-.9.3-1.1.3c-.5-.5-.8-1.1-.8-1.8.5-.1,1-.3,1.6-.2Z"/>
  <path class="st10" d="M31.1,9.5l-.3,1.8c-.1.5-.2.8-.5,1.1-.5.6-.8,1.5-1.1,2.2h-.3c.3-.6.4-1.2.4-1.8.6-1,1-2.1,1.3-3.2h.6Z"/>
  <path class="st10" d="M24.3,38.8v.4c-1.2.2-4.4,0-5.7-.4.8-.4,1.6,0,2.5,0h3.2Z"/>
  <path class="st5" d="M16,9c-.1,0-.3-.2-.4-.1s-.2.1-.2.2h-.6c0-.7.1-1.3.5-1.9,0,0,.2-.2.2-.3l.2-.4c0,.9.4,1.7.4,2.5Z"/>
  <path class="st6" d="M28.7,38.3c0,.3-.3.5-.7.6l-2.1.2h-.2c0,0-.1,0-.2,0,0-.1.1-.3.2-.4l3-.3Z"/>
  <path class="st6" d="M30.5,13.7c-1.2.3-1.1,2.8-2,2.7.3-.5.4-1.2.6-1.7.4-.7.6-1.6,1.1-2.2.2.4.3.8.3,1.3Z"/>
  <path class="st9" d="M31.5,8.5c-.2,0-.4,0-.5-.2s0-.5,0-.7c-.1,0-.5,0-.6,0s-.1-.4,0-.5.1-.1.4-.1l.3-.2c.2.1.5.3.5.6v1.1Z"/>
  <path class="st5" d="M19.4,1c-.7,1-1.1,1.9-2.1,1.8.2-1,1.3-1.4,2.1-1.8Z"/>
  <path class="st2" d="M35.7,33c-.8.2-1.7,0-2.2-.9,0,0,.2-.2.3-.2l1.9,1.1Z"/>
  <path class="st9" d="M25.7,38.6c0,.2,0,.3-.2.4l-1.2.2v-.4c.4-.4.9-.2,1.4-.2Z"/>
  <path class="st11" d="M16.4,37.9c0,.1,0,.2-.2.3,0,0-.2,0-.3,0,.1-.2.3-.2.5-.2Z"/>
  <path class="st3" d="M15.3,7.2l.2-.3c0,.1-.1.2-.2.3Z"/>
  <path class="st10" d="M25.7,39.1h.2c0,.3-.2.2-.2,0Z"/>
  <path class="st8" d="M23.7,5.4c-.7,0-1,.7-1.5,1.1-.3-.9-1-1.7-1.6-2.5,0-.3.3-1.1-.3-1.5-.3.3-.5.6-.9.8,0-1.2.9-1.8,1.8-2.2,2.6-1.3,4.9.7,4.9,1.6s-.8,1.3-1,2.7c-.2-.4-.5-.4-.9-.4s-.4.1-.5.4Z"/>
  <path class="st10" d="M25.6,11.7c-.2.6-.7,1-1.3,1h-.3c.2-.3.5-.7.4-1.2h1.2Z"/>
  <path class="st10" d="M29.8,7.8c-.2.2-.3.4-.5.7l-1.7-1c-1.1,1.2-2.7-.4-2.4,1.1l-2.1.4c-.4.9,0,1.5.4,2.3s.3,1,.5,1.3,0,.3.3.4l.3.2c-.7.3-.5,1-.5,1.7-.5,0-.2-.9-.6-.9h-.9c.6-.4,1-.8.7-1.5l-.6-1.3-.2,1.5c-.3-.8-.2-1.7-.9-2.3.1-.4.2-.8.1-1.2.7,0,.8-.8.7-1.4h.2c.5-.3,1.3,0,1.8-.3l1-.6c.3.5.8.7,1.2.3-.4,0-.6,0-.8-.2.4,0,.5-.1.6-.3h.6c.9.5,2.2-.5,2.7.2s0,.7,0,.9Z"/>
  <path class="st10" d="M16,9c0,.4.5.7.6.9.3.5.4,1.2,1.1,1.4h.3c0,.4.3.4.5.5.5,0,1.1.3,1.6.4-.7.8-2,.6-2.9,0s-1.5-1.9-1.8-3c0,0,.1-.2.2-.2.1,0,.3,0,.4.1Z"/>
  <path class="st9" d="M20.6,7.3c-.2.1-.5.3-.2.5,0,.9-1.1,1.6-1.9,1.3v-.2c-.1-.4-.4-.7-.7-.8,0-.2.1-.5.3-.7.1.1.4.2.4,0s0-.3,0-.5c0,0,.2,0,.3,0l1.9.4Z"/>
  <path class="st5" d="M22.3,7.5c0,.1.1.2.2.4-.3,0-.6.2-.9.5-.2-.7-.5-.9-1-1l-1.9-.4c.3-.5.8-1.3,1.6-1.2s1,.4,1.2.8c-.6-.2-1.1-.3-1.5.2,1.1-.1,1.8,0,2.2.8Z"/>
  <path class="st5" d="M18.3,5.3c0,0,0,.2,0,.2.2.5.2.9.2,1.4,0,.2,0,.3,0,.5s-.3,0-.4,0c.2-.5-.4-1.6-.9-1.4-.2.2-.2,1-.7.8,0-1,.2-2.4.8-2.7.3.5.7.9,1,1.1Z"/>
  <path class="st5" d="M26.4,6.7c-.1.2-.2.3-.6.3.2.3.4.2.8.2-.4.4-.9.2-1.2-.3l-1,.6c-.5.3-1.3,0-1.8.3,0-.4,0-.7.2-1,.4-.3,1.2-.3,1.8-.5s.6-.6,1-.3.4.6.9.6Z"/>
  <path class="st6" d="M17.8,8.1c.3.2.6.5.5.8,0,.8-.1,1.6-.3,2.4h-.3c0-.6-.4-1-.6-1.5s0-.7,0-1.1v-1c0-.1.4-.2.5-.1s0,.3.2.4Z"/>
  <path class="st10" d="M18.1,7.4c-.2.2-.2.5-.3.7,0,0,0-.3-.2-.4s-.5,0-.5.1v1c-.5.1-.6-.8-.7-2,.5.2.5-.6.7-.8.5-.2,1.1.9.9,1.4Z"/>
  <path class="st6" d="M23.7,5.4c-.4.5-.5,1-.8,1.5s-.3.6-.2,1h-.2c0-.2-.1-.3-.2-.4,0-.3,0-.7,0-1,.5-.3.8-1,1.5-1.1Z"/>
  <path class="st5" d="M17.1,9.9c.2.5.6.9.6,1.4-.7-.2-.8-.8-1.1-1.4h.5Z"/>
  <path class="st10" d="M18.3,5.5c0,0,0-.2,0-.2.1,0,.5,0,.5.4,0,0,0,0,.2.2-.1-.2-.3,0-.1.1l-.2-.2-.3-.2Z"/>
  <polygon class="st5" points="25.3 5.3 25.3 5.5 25.3 5.7 25.3 5.8 25.3 5.7 25.3 5.5 25.3 5.3"/>
  <path class="st1" d="M8.3,32.8h7.5c.1.2.1.3,0,.5-1.3,2-3.2,3.4-5.2,4.6H1.4c.4-.7.9-.9,1.3-1.2l3.2-2.3c.4-.3,1-.3,1-.9l.4-.2c.2,0,.4-.3.5-.5h.4Z"/>
  <path class="st11" d="M18.5,32.6v.5c-.8-.4-1.8-.2-2.7-.2h-7.5c0,0,0-.2,0-.3h10.2Z"/>
  <path class="st11" d="M7.4,33.3c0-.2.3-.4.5-.5-.1.2-.3.4-.5.5Z"/>
  <path class="st6" d="M17.8,13.6c-.4.6.5,1.5,1.4,2-.3-.6-.4-1-.5-1.4-.1-.1-.7-.2-.7-.5.4,0,.9,0,1.3,0,.1.7.8,1,1.1,1.5s.5,1.1,1,1.6.4.7.3.9c-.2.9-1.1.5-1.7.9-.2,0-.3-.2-.4-.3l-1.4-2.1c-.2-.3-1-.1-1.3-.1l-.6-1.2c.3-.6-.4-1-.3-2.1.5.3,1.1.7,1.6.9Z"/>
  <path class="st10" d="M19.7,18.2c-.1.6-.3,1.1,0,1.7-.2-.2-.5-.6-.9-.5,0,.2,0,.4,0,.5-1-.3-.6-1.8-1.5-2.6,0-.3-.1-.9-.3-1.3.3,0,1.1-.2,1.3.1l1.4,2.1Z"/>
  <path class="st5" d="M18.8,19.8c.2.1.4.4.3.7-.4,0-.8,0-.9.3h-.2c-.3-1.3-.8-2.4-.7-3.6.9.8.5,2.3,1.5,2.6Z"/>
  <path class="st9" d="M29.9,35.9c-.5,0-1.1.1-1.6.2h-.4c0-.3,0-.5,0-.7s-.4-.2-.5-.3l-.3-1c0,0,0-.2,0-.3.4,0,.9,0,1.2-.3l1.6,2.4Z"/>
  <path class="st14" d="M28.3,33.5c-.3.4-.8.4-1.2.3-.2-.4-.3-.9-.2-1.4l.6-.2c.5.3.5.9.7,1.3Z"/>
  <path class="st5" d="M27.7,31.7c0,.1,0,.3-.2.5l-.6.2h-.3c.3-.6.2-1.2.5-1.8.1.4.3.8.6,1.1Z"/>
  <path class="st9" d="M26.8,21.5c-.2,1.1-.6,2.2-.5,3.3v.5s-.8.9-.8.9c0,0-.3,0-.4,0-.4-.2.4-.9.3-1.2s-.4-.2-.6-.2v-.2c0-.5,0-1,0-1.5h1.1c0,.1.5-1.5.5-1.5h.4Z"/>
  <path class="st6" d="M28.1,20.4c.4.8-.3,1.8-.6,2.6s-.4,1.5-1.1,1.7c0-1.1.3-2.2.5-3.3s.4-1.2.9-1.6c0,.2.3.4.4.5Z"/>
  <path class="st9" d="M27.1,30.6c-.2.6-.1,1.3-.5,1.9-.1,0-.3,0-.5,0l.2-2.6c0-.3,0-.4-.2-.4l.3-1,.6,2.2Z"/>
  <path class="st10" d="M26.3,26.8c-.2,0-.6,0-.6.2,0,.3,0,.7,0,1-.3,0-.5-.1-.5-.4s0-.4,0-.6c0-.3.1-.5.2-.7v-.2s.9-.9.9-.9v1.6Z"/>
  <path class="st5" d="M26.3,26.8c0,.5,0,1.1.1,1.6l-.3,1c0,.1,0,.4,0,.5s-.4,0-.5,0c0-.2,0-.4,0-.5.3-.2.5-.5.6-1-.2,0-.4,0-.5,0,0-.1,0-.3,0-.4,0-.2,0-.7,0-1s.4-.2.6-.2Z"/>
  <path class="st5" d="M18.7,33.7h.3c-.4.8-.2,1.6,0,2.4h-1c-.2-.2-.4-.3-.7-.3.3-.8.6-1.5,1.1-2.1h.2Z"/>
  <path class="st14" d="M18.1,36c-.2.6-.3,1.3-.8,1.8-.2-.1-.6-.1-.8-.1,0-.7.2-1.5.9-1.8.3,0,.5,0,.7.2Z"/>
  <path class="st14" d="M19.4,32.4c0,.6-.2,1.1-.7,1.3h-.2s0-.6,0-.6v-.5c.1,0,.2-.2.4-.2h.6Z"/>
  <path class="st14" d="M20.8,36.3c0,.2-.2.2-.5.4h3.2c0,0,0-.4,0-.4.3,0,.8,0,1.1-.2s.7.3.9.4.5.4.4.7-.3.8-.6.8h-4.1c-.2,0-.3.2-.2.3-.6,0-1,0-1.6-.2-.5-.1-.9-.4-.8-.8s.4-.9,1-.9.4,0,.6-.2.2-.2.3-.2.2,0,.3.1Z"/>
  <path class="st5" d="M26.2,36.1c-.1.2-.4.4-.6.5-.2-.2-.6-.5-.9-.4.3-.7.5-1.3.5-2h.3c1,.3.4.9.8,1.9Z"/>
  <path class="st6" d="M27,34.1l.3,1c-.2,0-.3.1-.5.1-.3,0-.4.4-.2.6s.4.2.6.3c-.4.2-.8,0-1.1,0-.3-1,.2-1.7-.8-1.9.5-.2,1.1-.1,1.6,0Z"/>
  <path class="st10" d="M27.9,36.1c-.2,0-.4,0-.6,0-.2,0-.4-.1-.6-.3s-.2-.5.2-.6.3,0,.5-.1c.1,0,.4.1.5.3s.1.4,0,.6Z"/>
  <path class="st6" d="M29.8,7.8c.5.2.7.9.8,1.4-.9.3-1.3,1.7-2.7,2.9s-.6.4-1,.6c-.4-.5-.8-.9-1.4-1h-1.2c.1.4-.1.7-.4,1.1-.2-.3-.3-.9-.5-1.3-.4-.7-.8-1.4-.4-2.3l2.1-.4c-.3-1.6,1.3,0,2.4-1.1l1.7,1c.2-.3.3-.6.5-.7ZM25.3,8.9c.2.5.5.4.3,0h-.3ZM27.8,9.9c-.8.3-1.4-.2-2-.7v.2c.3.7,1.2,1,2,1,0,.1.2.4.3.4.9-.6,1.4-1.4,1-1.9s-.4.6-1.3,1Z"/>
  <path class="st6" d="M24.3,13.2c-.2-.1-.2-.3-.3-.4h.3s0,.4,0,.4Z"/>
  <path class="st8" d="M30.6,9.6c-.4,1.1-.7,2.2-1.3,3.2s-.2.5-.4.5-.6-.2-.7-.2c-.1-.4-.1-.7-.1-1,1.4-1.2,1.7-2.6,2.7-2.9,0,0,0,.3,0,.3Z"/>
  <path class="st6" d="M21.7,9.2c0,.4,0,.8-.1,1.2.7.6.6,1.5.9,2.3l.2-1.5.6,1.3c.3.7-.2,1.1-.7,1.5h.9c.4,0,0,1.1.6,1v.4c0,0-.3,0-.4,0-.1,0-.3-.2-.5-.5v1c-.3,0-1.1,0-1.2-.4-.2-.7,0-1.3-.2-1.8v-.3c-.2-.4-.5-.8-.9-.6h-.4c0-.2,0-.4-.1-.4h-.3c-.5-.2-1.1-.5-1.6-.5v-1.4c.4,0,1,0,1.5-.4-.4-.6-1-.5-1.5-.4,0-.1,0-.3,0-.4.9.3,2-.4,1.9-1.3.7,0,1.2.7,1.3,1.4ZM20.9,12h-.1c0,.1.1.2.1.2h.1c0-.1-.1-.2-.1-.2Z"/>
  <path class="st5" d="M20.6,12.7h.4c-.2.3-.1.5,0,.7s.5.1.7,0v.3c-.4,0-.8,0-1.1.3.6.3.2.8,0,1.1-.3-.5-1-.8-1.1-1.5.2-.5.7-1,1.2-.9Z"/>
  <path class="st10" d="M17.8,13.6c0,0,.2,0,.3,0,0,.3.6.4.7.5,0,.5.2.9.5,1.4-1-.5-1.9-1.4-1.4-2Z"/>
  <path class="st5" d="M28.5,16.3c-.5.7-.9,1.4-.2,2.4-.4.4-.4.9-.6,1.2-.5.4-.8,1-.9,1.6h-.4c.3-.8,0-1.7.5-2.7s.2-.6,0-.8c0,0-2.1-.7-3-.6-.3,1.1-.2,2.2-.6,3.1l-1.4,3c-.4.4-.9.8-1.4.6,0-.3-.3-.5-.6-.4v-.3c0-.5.3-.6.7-.8,1-.5-.2-2.4-.2-2.4-.1,0-.2.3-.3.4,0-.3,0-.4-.1-.6s-.3-.2-.4-.2c-.2-.5,0-1.1,0-1.7,0,.1.2.3.4.3l2,.8c.1-.3.2-.6.3-.7s.3,0,.4.3c1.1-.9.3-1.9.4-3v-1c.3.3.4.5.5.5s.3,0,.3,0c.3,0,.8,0,1.1,0,0,0,.2,0,.3,0,.1.4.3.7.7.9.5-.6,1-.5,1.7-.6.5-.2.9-.9,1.1-1.3h.3c-.2.5-.3,1.3-.6,1.8Z"/>
  <path class="st13" d="M19,36.1c.3.1.5.1.8.1h.4c-.1.2-.3.3-.6.3-.7,0-.9.3-1,.9s.3.7.8.8c-.7-.2-1.6,0-2.2-.4.5-.5.7-1.2.8-1.8h1Z"/>
  <path class="st6" d="M28.9,14.6c-.2.4-.6,1.1-1.1,1.3-.6,0-1.2,0-1.7.6-.4-.3-.6-.6-.7-.9,0,0,.3.2.3.2.6-.2,0-1.2,0-1.9.3,0,.5,0,.7,0,.1,0,.3.2.3.3,0,.5-.2.9-.2,1.5.2-.4.6-1,.6-1.4s.3-.7.8-.9.5.2.7.2c.3,0,.3-.4.4-.5,0,.6-.1,1.2-.4,1.8Z"/>
  <path class="st5" d="M28,12.1c0,.4,0,.7.1,1-.5.2-.8.5-.8.9h-.4c0-.2-.2-.3-.3-.3.1,0,.4-.4.3-.5-.4-.2-.8.1-1,.4h-.4c-.2-.3-.5-.4-.8-.4l-.3-.2v-.5c.6,0,1.1-.5,1.3-1,.6,0,1,.5,1.4,1,.4-.2.7-.4,1-.6ZM25.8,12.9h-.1c0,.1.1.2.1.2h.1c0-.1-.1-.2-.1-.2Z"/>
  <path class="st12" d="M25.4,13.6c-.4.5-.3,1.2-.3,1.9-.3,0-.8,0-1.1,0v-.4c0-.7-.1-1.4.5-1.7.3,0,.6,0,.8.3Z"/>
  <path class="st3" d="M22.4,7.9c0,.6,0,1.3-.7,1.4-.2-.6-.7-1.4-1.3-1.4-.3-.2,0-.4.2-.5.4,0,.8.3,1,1,.3-.3.5-.5.9-.5Z"/>
  <path class="st13" d="M18.5,9.2c0,0,0,.2,0,.4v.9c-.1,0,0,1.4,0,1.4-.3,0-.5,0-.5-.4.2-.8.3-1.6.3-2.4v.2Z"/>
  <path class="st6" d="M26.5,21.5l-.5,1.6h-1.1c0,.5-.1,1-.1,1.4-.8.5-1.2,1.4-1.9,2.3l-3.4,4.4.4-2.5c.4,0,.5-.4.7-.8.4-1.1,1.1-2.1,1.2-3.2l1.5-2.7c.3-.5.3-1,.2-1.5.4-.9.3-2,.6-3.1.9-.2,3.1.6,3,.6.2.2.1.6,0,.8-.5.9-.2,1.9-.5,2.7Z"/>
  <path class="st5" d="M24.8,24.7c0,.7-.6,1.3-.5,2.3,0,.7-1.6,2-2.6,2.6s-1.8,1.9-1.7,2.4v.4c.1,0-.6,0-.6,0h-.6c0-.5.3-.8.6-1.2l3.4-4.4c.6-.8,1-1.7,1.9-2.3v.2Z"/>
  <path class="st9" d="M19.9,23.4v.3c.2.1.4.4.6.4.5.2,1-.2,1.4-.6-.2.4-.2.8-.3,1.2-.1,1.1-.8,2.1-1.2,3.2s-.3.7-.7.8v-3c0-.9-.6-1.7-.4-2.6l.5.3Z"/>
  <path class="st3" d="M19.7,19.9c.1,0,.4,0,.4.2s0,.3.1.6c0,0,.1-.3.3-.4s1.3,1.9.2,2.4-.8.3-.8.8l-.5-.3-1.2-2.2c.1-.3.5-.4.9-.3,0-.3-.2-.6-.3-.7,0,0-.2-.3,0-.5.4,0,.7.3.9.5Z"/>
  <path class="st10" d="M21.8,13.7c.2.5,0,1.2.2,1.8s.8.4,1.1.4c0,1.1.8,2.1-.4,3,0-.3-.3-.4-.4-.3,0,.2-.2.4-.3.7l-2-.8c.5-.5,1.4,0,1.7-.9s0-.7-.3-.9c-.5-.5-.7-1.1-1-1.6.3-.3.6-.8,0-1.1.4-.2.8-.3,1.2-.3Z"/>
  <path class="st4" d="M26.6,32.4h.3c-.1.4,0,.9.2,1.3,0,0,0,.2,0,.3-.5,0-1.1-.1-1.6,0h-.3c0,0-.9,0-.9,0l.2-1.5h.3c.5,0,1,0,1.4-.1s.3,0,.5,0Z"/>
  <path class="st3" d="M25.5,26.1v.2c-.4,0-.6.1-.7.5l-.5.2c-.1-.9.5-1.5.5-2.3.2,0,.4,0,.6.2s-.7.9-.3,1.2.3,0,.4,0Z"/>
  <path class="st10" d="M26.1,32.5c-.4.2-.9,0-1.4.1,0-.6.4-1,.9-1.6-.8-.7-1.4,1.4-2.5,1.2,0-.5,1-1.1,1.1-2.2.4-.3.9,0,1.3,0,.1,0,.5.2.5,0s0-.4,0-.5c.2,0,.3.2.2.4l-.2,2.6Z"/>
  <path class="st10" d="M23.2,32.2v.4s-.5,0-.5,0c0-.2,0-.4.2-.4s.3,0,.4,0Z"/>
  <path class="st6" d="M25.2,27.1c0,.1,0,.4,0,.6s.2.4.5.4c0,.1,0,.3,0,.4-.2.3-.2.7,0,1s0,.3,0,.5c-.4,0-.9-.2-1.3,0-.9.6-1.4,1.1-1.8,1.2s-.4-.3-.6-.3l-1.9,1.2c-.1-.5,1.2-2.1,1.7-2.4,1-.6,2.5-1.9,2.6-2.6l.5-.2c0,.1.3.2.5.2Z"/>
  <path class="st9" d="M25.5,26.4c-.1.2-.2.4-.2.7-.1,0-.4,0-.5-.2.1-.3.4-.5.7-.5Z"/>
  <path class="st10" d="M25.5,29.4c-.2-.3,0-.7,0-1,.1,0,.3,0,.5,0,0,.5-.3.8-.6,1Z"/>
  <path class="st13" d="M20.2,32.4c.3,0,.5,0,.7.2,0,.5,0,.9.2,1.4h-1.6s-.5-.2-.5-.2h-.3c.5-.4.8-.9.7-1.4h.7Z"/>
  <path class="st10" d="M19.5,33.9l-.2,1.1c.4,0,.9.2.9.4s-.2.6-.4.7c-.3,0-.5,0-.8-.1-.2-.8-.4-1.6,0-2.3h.5Z"/>
  <path class="st3" d="M21.1,34l3.2.2h.9c0,.7-.2,1.3-.5,2-.4.1-.8.1-1.1.2-.8.2-2.7,0-2.8,0s-.2-.2-.3-.1-.2.1-.3.2h-.4c.1-.3.4-.7.4-.9s-.5-.5-.9-.4l.2-1.1h1.6Z"/>
  <path class="st9" d="M23.6,36.3s0,.4,0,.4h-3.2c.3-.2.4-.3.5-.5,0,0,1.9.3,2.8,0Z"/>
  <path class="st9" d="M27.8,10.4v-.5c.8-.3.9-1.4,1.3-1s0,1.3-1,1.9c-.1,0-.3-.3-.3-.4Z"/>
  <path class="st13" d="M27.8,9.9v.5c-.8,0-1.7-.3-2.1-1l-.4-.5c.2.5.5.4.3,0,0,.3.2.3.2.3.6.5,1.2,1,2,.7Z"/>
  <path class="st10" d="M18.4,10.4v-.9c.6-.1,1.2-.2,1.6.4-.5.4-1.1.5-1.6.4Z"/>
  <path class="st10" d="M21.7,13.4c-.2,0-.5.2-.7,0s-.3-.4,0-.6c.4-.1.7.2.8.6Z"/>
  <rect class="st10" x="20.9" y="12.1" width=".2" height=".2" transform="translate(-2.5 18.4) rotate(-45)"/>
  <path class="st3" d="M21.7,24.8c0-.4,0-.8.3-1.2l1.4-3c.2.5.1,1-.2,1.5l-1.5,2.7Z"/>
  <path class="st10" d="M25.8,13.7s0,.1,0,.2c-.1.7.5,1.7,0,1.9s-.3-.1-.3-.2c0,0-.2,0-.3,0,0-.6,0-1.3.3-1.9h.4Z"/>
  <path class="st3" d="M20.6,24.1c-.2,0-.4-.3-.6-.4.3,0,.6.1.6.4Z"/>
  <path class="st3" d="M26.5,13.8c-.2,0-.5,0-.7,0,0,0,0-.1,0-.2.2-.3.5-.7,1-.4,0,.1-.1.5-.3.5Z"/>
  <path class="st9" d="M27.3,14.1c0,.5-.4,1-.6,1.4,0-.6.3-1,.2-1.5h.4Z"/>
  <rect class="st3" x="25.7" y="13" width=".2" height=".2" transform="translate(-1.7 22.1) rotate(-45)"/>
  <path class="st3" d="M23.2,32.2c0,0-.2,0-.4,0s-.2.2-.2.4c-.6,0-1.2,0-1.8,0-.2-.1-.5-.2-.7-.2v-.4c-.1,0,1.8-1.2,1.8-1.2.2,0,.4.4.6.3.3,0,.9-.6,1.8-1.2-.1,1-1.1,1.6-1.1,2.2Z"/>
  <path class="st3" d="M24.7,32.6h-.3s-1.3,0-1.3,0v-.4c1.1.2,1.7-1.9,2.5-1.2-.5.6-.9,1-.9,1.6Z"/>
  <path class="st14" d="M22.6,32.6h.5s1.3,0,1.3,0l-.2,1.5-3.2-.2c-.2-.4-.3-.9-.2-1.4.6,0,1.2,0,1.8,0Z"/>
</svg>